<svg id="uuid-0e7690f6-97e2-4c7c-ae76-a86295fca1bd" xmlns="http://www.w3.org/2000/svg" viewBox="0 0 1505.52 457.84"><path d="M1449.76 457.84h-1394C25.09 457.84 0 432.09 0 400.61V57.23C0 25.75 25.09 0 55.76 0h1394c30.67 0 55.76 25.75 55.76 57.23v343.38c0 31.48-25.09 57.23-55.76 57.23z"/><path d="M528.81 117.24c0 9.59-2.77 17.23-8.32 22.92-6.23 6.78-14.42 10.17-24.58 10.17s-17.94-3.45-24.67-10.36c-6.73-6.91-10.09-15.41-10.09-25.51s3.36-18.61 10.09-25.51c6.73-6.91 14.95-10.36 24.67-10.36 4.92 0 9.56.9 13.92 2.69 4.36 1.79 7.94 4.32 10.75 7.58l-6.17 6.33c-2.06-2.56-4.72-4.56-7.99-5.99-3.27-1.44-6.78-2.16-10.51-2.16-7.29 0-13.46 2.59-18.5 7.77-4.99 5.24-7.48 11.8-7.48 19.66s2.49 14.42 7.48 19.66c5.05 5.18 11.21 7.77 18.5 7.77 6.67 0 12.21-1.92 16.63-5.75 4.42-3.84 6.98-9.11 7.66-15.83h-24.3v-8.25h32.43c.31 1.79.47 3.52.47 5.18zm51.4-37.12v8.44h-30.47v21.77h27.48v8.25h-27.48v21.77h30.47v8.44h-39.06V80.11h39.06zm36.25 8.44v60.24h-8.6V88.56h-18.69v-8.44h45.98v8.44h-18.69zm60.56 60.24h-8.6V80.12h8.6v68.68zm38.13-60.24v60.24h-8.6V88.56h-18.69v-8.44h45.98v8.44h-18.69zm115.6 25.9c0 10.17-3.3 18.67-9.91 25.51-6.67 6.91-14.83 10.36-24.49 10.36s-17.88-3.45-24.48-10.36c-6.6-6.84-9.91-15.35-9.91-25.51s3.3-18.67 9.91-25.51c6.6-6.91 14.77-10.36 24.48-10.36s17.88 3.49 24.49 10.46c6.6 6.84 9.91 15.32 9.91 25.42zm-60 0c0 7.93 2.43 14.48 7.29 19.66 4.92 5.18 11.03 7.77 18.32 7.77s13.36-2.59 18.22-7.77c4.92-5.12 7.38-11.67 7.38-19.66s-2.46-14.55-7.38-19.66c-4.86-5.18-10.93-7.77-18.22-7.77s-13.4 2.59-18.32 7.77c-4.86 5.18-7.29 11.73-7.29 19.66zm80.65 34.34h-8.6V80.12h10.47l32.52 53.43h.37l-.37-13.24V80.12h8.6v68.68h-8.97L851.4 92.78h-.37l.37 13.24v42.78zm-91.55 100.17c-26.23 0-47.61 20.47-47.61 48.68s21.38 48.68 47.61 48.68 47.61-20.65 47.61-48.68-21.38-48.68-47.61-48.68zm0 78.19c-14.37 0-26.77-12.17-26.77-29.5s12.4-29.5 26.77-29.5 26.77 11.99 26.77 29.5-12.4 29.5-26.77 29.5zm-103.86-78.19c-26.23 0-47.61 20.47-47.61 48.68s21.38 48.68 47.61 48.68 47.61-20.65 47.61-48.68-21.38-48.68-47.61-48.68zm0 78.19c-14.37 0-26.77-12.17-26.77-29.5s12.4-29.5 26.77-29.5 26.77 11.99 26.77 29.5-12.4 29.5-26.77 29.5zm-123.55-63.25v20.65h48.15c-1.44 11.62-5.21 20.1-10.96 26-7.01 7.19-17.97 15.12-37.19 15.12-29.64 0-52.82-24.53-52.82-54.95s23.18-54.95 52.82-54.95c15.99 0 27.67 6.45 36.29 14.75l14.19-14.57c-12.04-11.8-28.03-20.84-50.49-20.84-40.6 0-74.74 33.93-74.74 75.6s34.14 75.6 74.74 75.6c21.92 0 38.45-7.38 51.38-21.21 13.3-13.65 17.43-32.82 17.43-48.31 0-4.79-.36-9.22-1.08-12.91h-67.73zm505.28 16.04c-3.95-10.88-15.99-30.98-40.6-30.98s-44.74 19.73-44.74 48.68c0 27.29 20.12 48.68 47.07 48.68 21.74 0 34.32-13.65 39.53-21.57l-16.17-11.06c-5.39 8.11-12.76 13.46-23.36 13.46s-18.15-4.98-23-14.75l63.42-26.92-2.16-5.53zm-64.68 16.23c-.54-18.81 14.19-28.4 24.79-28.4 8.27 0 15.27 4.24 17.61 10.33l-42.4 18.07zm-51.56 47.21h20.84V200.3h-20.84v143.09zm-34.14-83.53h-.72c-4.67-5.72-13.65-10.88-24.97-10.88-23.72 0-45.46 21.39-45.46 48.87s21.74 48.5 45.46 48.5c11.32 0 20.3-5.16 24.97-11.06h.72v7.01c0 18.62-9.7 28.58-25.33 28.58-12.76 0-20.66-9.4-23.89-17.33l-18.15 7.74c5.21 12.91 19.04 28.77 42.04 28.77 24.43 0 45.1-14.75 45.1-50.71v-87.41h-19.76v7.93zm-23.89 67.31c-14.37 0-26.41-12.35-26.41-29.32s12.04-29.69 26.41-29.69 25.33 12.54 25.33 29.69-11.14 29.32-25.33 29.32zm271.9-126.86h-49.86V343.4h20.81v-54.21h29.06c23.07 0 45.74-17.14 45.74-44.44s-22.67-44.44-45.74-44.44zm.54 68.96h-29.59v-49.05h29.59c15.56 0 24.39 13.22 24.39 24.52s-8.84 24.52-24.39 24.52zm128.6-20.55c-15.07 0-30.67 6.81-37.13 21.91l18.47 7.92c3.95-7.92 11.3-10.49 19.01-10.49 10.76 0 21.7 6.63 21.88 18.41v1.47c-3.77-2.21-11.84-5.52-21.7-5.52-19.91 0-40.18 11.23-40.18 32.22 0 19.15 16.32 31.48 34.62 31.48 13.99 0 21.7-6.44 26.55-13.99h.72v11.05h20.09v-54.86c0-25.4-18.47-39.58-42.33-39.58zm-2.51 78.42c-6.82 0-16.32-3.5-16.32-12.15 0-11.05 11.84-15.28 22.06-15.28 9.15 0 13.45 2.03 19.01 4.79-1.61 13.25-12.73 22.64-24.75 22.64zM1380 251.85l-23.85 62.04h-.72l-24.75-62.04h-22.42l37.13 86.71-21.16 48.23h21.7l57.22-134.94h-23.14zm-187.43 91.55h20.81V200.31h-20.81V343.4z" fill="#fff"/><path d="M231.04 222.33L112.31 351.67s.01.05.02.08c3.64 14.04 16.14 24.38 30.97 24.38 5.93 0 11.49-1.65 16.27-4.53l.38-.23 133.64-79.14-62.55-69.89z" fill="#ea4335"/><path d="M351.16 200.3l-.11-.08-57.7-34.33-65 59.37 65.23 66.94 57.39-33.99c10.06-5.58 16.89-16.46 16.89-29.01s-6.74-23.3-16.7-28.9z" fill="#fbbc04"/><path d="M112.3 106.19c-.71 2.7-1.09 5.54-1.09 8.47v228.55c0 2.93.37 5.77 1.09 8.46l122.81-126.03-122.82-119.45z" fill="#4285f4"/><path d="M231.91 228.93l61.45-63.06-133.49-79.44c-4.85-2.98-10.51-4.71-16.57-4.71-14.84 0-27.35 10.36-30.99 24.42v.03l119.61 122.74z" fill="#34a853"/></svg>