<svg id="uuid-f34382ac-fe98-4728-9a84-a13c4812eca1" xmlns="http://www.w3.org/2000/svg" viewBox="0 0 1505.52 457.84"><defs><style>.uuid-e46403c6-da11-4c1d-a7a9-2c774c6f0cc7{fill:#fff}</style></defs><g id="uuid-ebe9c7fe-0d20-4015-9d47-3d4f0acc1407"><path d="M58.2 0h1389.13c32.12 0 58.19 26.08 58.19 58.19v341.46c0 32.12-26.08 58.19-58.19 58.19H58.19C26.08 457.84 0 431.77 0 399.65V58.2C0 26.08 26.08 0 58.2 0z"/><path class="uuid-e46403c6-da11-4c1d-a7a9-2c774c6f0cc7" d="M136.84 187.07c-24.42 42.38-8.9 106.7 18.11 145.69 13.48 19.5 27.13 37 45.82 37 .35 0 .71 0 1.07-.02 8.78-.35 15.13-3.05 21.27-5.67 6.89-2.94 14.02-5.97 25.2-5.97s17.42 2.94 23.98 5.77c6.47 2.8 13.13 5.7 22.97 5.51 21.06-.39 33.99-19.28 45.39-35.94 11.9-17.39 17.88-34.28 19.89-40.74l.08-.26c.38-1.15-.16-2.4-1.26-2.9 0 0-.14-.06-.17-.07-3.71-1.52-36.24-15.95-36.58-55.28-.32-31.96 24.4-48.87 29.36-51.94l.23-.15c.54-.34.91-.89 1.04-1.52s0-1.28-.37-1.81c-17.06-24.97-43.21-28.73-53.74-29.18-1.52-.15-3.1-.23-4.68-.23-12.37 0-24.21 4.67-33.73 8.42-6.57 2.59-12.25 4.83-16.15 4.83-4.4 0-10.11-2.27-16.71-4.88-8.84-3.51-18.86-7.48-29.46-7.48-.25 0-.5 0-.75.01-24.66.36-47.96 14.47-60.8 36.8z"/><path class="uuid-e46403c6-da11-4c1d-a7a9-2c774c6f0cc7" d="M299.14 80.88c-14.93.61-32.84 9.8-43.54 22.34-9.1 10.53-17.99 28.11-15.65 45.82a2.374 2.374 0 0 0 2.17 2.05c1.01.08 2.03.12 3.06.12 14.6 0 30.35-8.08 41.1-21.08 11.32-13.73 17.04-31.35 15.31-47.14a2.387 2.387 0 0 0-2.45-2.11zm171.79 23.57h28.31c7.43 0 14.02 1.53 19.78 4.6 5.76 3.07 10.24 7.31 13.44 12.73 3.2 5.42 4.8 11.57 4.8 18.45s-1.6 13.03-4.8 18.45c-3.2 5.42-7.68 9.66-13.44 12.72-5.76 3.07-12.35 4.6-19.78 4.6h-28.31v-71.55zm27.9 66.85c6.61 0 12.43-1.31 17.48-3.94 5.04-2.62 8.93-6.29 11.65-10.99 2.72-4.7 4.09-10.08 4.09-16.15s-1.36-11.45-4.09-16.15c-2.73-4.7-6.61-8.36-11.65-10.99-5.04-2.62-10.87-3.93-17.48-3.93h-22.69v62.14h22.69zm62.09 1.63c-4.05-2.32-7.24-5.54-9.56-9.66-2.32-4.12-3.48-8.77-3.48-13.95s1.16-9.83 3.48-13.95c2.32-4.12 5.5-7.34 9.56-9.66 4.05-2.32 8.6-3.48 13.65-3.48s9.59 1.16 13.64 3.48c4.05 2.32 7.24 5.54 9.56 9.66 2.32 4.12 3.48 8.77 3.48 13.95s-1.16 9.83-3.48 13.95c-2.32 4.12-5.5 7.34-9.56 9.66-4.05 2.32-8.6 3.48-13.64 3.48s-9.59-1.16-13.65-3.48zm24.63-3.99c3.24-1.91 5.79-4.56 7.67-7.97 1.87-3.41 2.81-7.29 2.81-11.65s-.94-8.24-2.81-11.65c-1.88-3.41-4.43-6.06-7.67-7.97-3.24-1.91-6.9-2.86-10.99-2.86s-7.75.95-10.99 2.86-5.79 4.57-7.67 7.97c-1.88 3.41-2.81 7.29-2.81 11.65s.94 8.25 2.81 11.65c1.87 3.41 4.43 6.07 7.67 7.97 3.24 1.91 6.9 2.86 10.99 2.86s7.75-.95 10.99-2.86zm106.25-46.3l-20.24 53.35h-4.8l-17.99-46.3-18.09 46.3h-4.7l-20.24-53.35h4.91l17.78 47.63 18.19-47.63h4.4l18.09 47.53 17.99-47.53h4.7zm53.77 5.42c3.88 3.88 5.83 9.47 5.83 16.76v31.17h-5.11v-30.77c0-6-1.52-10.56-4.55-13.7-3.03-3.13-7.27-4.7-12.73-4.7-6.27 0-11.21 1.88-14.82 5.62-3.61 3.75-5.42 8.79-5.42 15.13v28.41h-5.11v-53.35h4.91v11.55c1.84-3.75 4.58-6.68 8.23-8.79 3.64-2.11 7.96-3.17 12.93-3.17 6.68 0 11.96 1.94 15.84 5.83zm26.88-27.91h5.11v75.84h-5.11v-75.84zm33.88 72.78c-4.05-2.32-7.24-5.54-9.56-9.66-2.32-4.12-3.48-8.77-3.48-13.95s1.16-9.83 3.48-13.95c2.32-4.12 5.5-7.34 9.56-9.66 4.05-2.32 8.6-3.48 13.65-3.48s9.59 1.16 13.64 3.48c4.05 2.32 7.24 5.54 9.56 9.66 2.32 4.12 3.47 8.77 3.47 13.95s-1.16 9.83-3.47 13.95c-2.32 4.12-5.5 7.34-9.56 9.66-4.05 2.32-8.6 3.48-13.64 3.48s-9.59-1.16-13.65-3.48zm24.63-3.99c3.24-1.91 5.79-4.56 7.67-7.97 1.87-3.41 2.81-7.29 2.81-11.65s-.94-8.24-2.81-11.65c-1.88-3.41-4.43-6.06-7.67-7.97-3.24-1.91-6.9-2.86-10.99-2.86s-7.75.95-10.99 2.86-5.79 4.57-7.67 7.97c-1.88 3.41-2.81 7.29-2.81 11.65s.94 8.25 2.81 11.65c1.87 3.41 4.43 6.07 7.67 7.97 3.24 1.91 6.9 2.86 10.99 2.86s7.75-.95 10.99-2.86zm64.55-41.65c3.54 3.37 5.31 8.33 5.31 14.87v33.83h-4.91v-9.51c-1.7 3.13-4.19 5.57-7.46 7.31-3.27 1.74-7.19 2.61-11.75 2.61-5.93 0-10.61-1.4-14.05-4.19-3.44-2.79-5.16-6.47-5.16-11.04s1.58-8.02 4.75-10.78 8.23-4.14 15.18-4.14h18.3v-4.29c0-4.97-1.35-8.75-4.04-11.35-2.69-2.59-6.63-3.88-11.81-3.88-3.54 0-6.93.61-10.17 1.84s-5.98 2.86-8.23 4.91l-2.56-3.68c2.66-2.38 5.86-4.24 9.61-5.57 3.75-1.33 7.67-1.99 11.75-1.99 6.61 0 11.69 1.69 15.23 5.06zm-6.8 41.86c3.1-2.04 5.43-5.01 7-8.89v-10.02h-18.19c-5.25 0-9.05.95-11.4 2.86-2.35 1.91-3.53 4.53-3.53 7.87s1.29 6.22 3.88 8.23c2.59 2.01 6.23 3.02 10.94 3.02 4.43 0 8.19-1.02 11.29-3.07zm80.69-69v75.84h-5.01v-12.57c-2.11 4.16-5.08 7.36-8.89 9.61-3.82 2.25-8.14 3.37-12.98 3.37s-9.47-1.16-13.49-3.48c-4.02-2.32-7.17-5.52-9.45-9.61-2.28-4.09-3.42-8.75-3.42-14s1.14-9.93 3.42-14.05c2.28-4.12 5.43-7.32 9.45-9.61 4.02-2.28 8.52-3.42 13.49-3.42s9.05 1.12 12.83 3.37c3.78 2.25 6.76 5.38 8.94 9.4v-34.85h5.11zm-15.59 68.79c3.24-1.91 5.79-4.56 7.67-7.97 1.87-3.41 2.81-7.29 2.81-11.65s-.94-8.24-2.81-11.65c-1.88-3.41-4.43-6.06-7.67-7.97-3.24-1.91-6.9-2.86-10.99-2.86s-7.75.95-10.99 2.86-5.79 4.57-7.67 7.97c-1.88 3.41-2.81 7.29-2.81 11.65s.94 8.25 2.81 11.65c1.87 3.41 4.43 6.07 7.67 7.97 3.24 1.91 6.9 2.86 10.99 2.86s7.75-.95 10.99-2.86zm70.63 3.99c-4.05-2.32-7.24-5.54-9.56-9.66-2.32-4.12-3.48-8.77-3.48-13.95s1.16-9.83 3.48-13.95c2.32-4.12 5.5-7.34 9.56-9.66 4.05-2.32 8.6-3.48 13.64-3.48s9.59 1.16 13.65 3.48c4.05 2.32 7.24 5.54 9.56 9.66 2.32 4.12 3.47 8.77 3.47 13.95s-1.16 9.83-3.47 13.95c-2.32 4.12-5.5 7.34-9.56 9.66-4.05 2.32-8.6 3.48-13.65 3.48s-9.59-1.16-13.64-3.48zm24.63-3.99c3.24-1.91 5.79-4.56 7.67-7.97 1.87-3.41 2.81-7.29 2.81-11.65s-.94-8.24-2.81-11.65c-1.88-3.41-4.43-6.06-7.67-7.97-3.24-1.91-6.9-2.86-10.99-2.86s-7.75.95-10.99 2.86-5.79 4.57-7.67 7.97c-1.88 3.41-2.81 7.29-2.81 11.65s.94 8.25 2.81 11.65c1.87 3.41 4.43 6.07 7.67 7.97 3.24 1.91 6.9 2.86 10.99 2.86s7.75-.95 10.99-2.86zm73.44-40.88c3.88 3.88 5.83 9.47 5.83 16.76v31.17h-5.11v-30.77c0-6-1.52-10.56-4.55-13.7-3.03-3.13-7.27-4.7-12.73-4.7-6.27 0-11.21 1.88-14.82 5.62-3.61 3.75-5.42 8.79-5.42 15.13v28.41h-5.11v-53.35h4.91v11.55c1.84-3.75 4.58-6.68 8.23-8.79 3.64-2.11 7.96-3.17 12.93-3.17 6.68 0 11.96 1.94 15.84 5.83zm79.62 44.56c-1.3 1.23-2.91 2.16-4.86 2.81-1.94.65-3.97.97-6.08.97-4.64 0-8.21-1.28-10.73-3.83-2.52-2.56-3.78-6.11-3.78-10.68v-34.85h-9.81v-4.4h9.81v-11.65h5.11v11.65h16.97v4.4h-16.97v34.34c0 3.47.83 6.12 2.5 7.92 1.67 1.81 4.14 2.71 7.41 2.71s6.1-.99 8.28-2.96l2.15 3.58zm56.11-44.56c3.88 3.88 5.83 9.47 5.83 16.76v31.17h-5.11v-30.77c0-6-1.52-10.56-4.55-13.7-3.03-3.13-7.27-4.7-12.73-4.7-6.27 0-11.21 1.88-14.82 5.62-3.61 3.75-5.42 8.79-5.42 15.13v28.41h-5.11v-75.84h5.11v33.63c1.84-3.68 4.56-6.52 8.18-8.53 3.61-2.01 7.87-3.02 12.78-3.02 6.68 0 11.96 1.94 15.84 5.83zm72.06 22.48h-45.89c.14 4.16 1.19 7.85 3.17 11.09s4.65 5.74 8.02 7.51c3.37 1.77 7.17 2.66 11.4 2.66 3.47 0 6.69-.63 9.66-1.89 2.96-1.26 5.43-3.12 7.41-5.57l2.96 3.37c-2.32 2.8-5.23 4.94-8.74 6.44s-7.31 2.25-11.4 2.25c-5.32 0-10.05-1.16-14.21-3.48-4.16-2.32-7.41-5.52-9.76-9.61-2.35-4.09-3.53-8.75-3.53-14s1.11-9.83 3.32-13.95c2.21-4.12 5.26-7.34 9.15-9.66 3.88-2.32 8.24-3.48 13.08-3.48s9.18 1.14 13.03 3.42c3.85 2.28 6.88 5.47 9.1 9.56 2.21 4.09 3.32 8.72 3.32 13.9l-.1 1.43zm-35.47-21.31c-3 1.67-5.4 4.02-7.21 7.05-1.81 3.03-2.85 6.46-3.12 10.27h40.88c-.2-3.82-1.23-7.22-3.07-10.22-1.84-3-4.26-5.35-7.26-7.05-3-1.7-6.37-2.56-10.12-2.56s-7.12.84-10.12 2.5zM546.6 334.16h-61.13l-12.05 28.3h-23.41l55.02-122.27h22.36l55.19 122.27h-23.75l-12.23-28.3zm-7.51-17.82l-23.06-53.45-22.88 53.45h45.94zm133.01-42.26c7.16 3.96 12.78 9.55 16.86 16.77 4.07 7.22 6.11 15.55 6.11 24.98s-2.04 17.79-6.11 25.06c-4.08 7.28-9.69 12.9-16.86 16.86-7.16 3.96-15.28 5.94-24.37 5.94-12.58 0-22.53-4.19-29.87-12.58v45.24h-21.83V269.19h20.79v12.23c3.61-4.42 8.06-7.74 13.36-9.96 5.3-2.21 11.15-3.32 17.55-3.32 9.08 0 17.2 1.98 24.37 5.94zm-6.99 62.88c5.18-5.35 7.77-12.4 7.77-21.13s-2.59-15.78-7.77-21.14c-5.18-5.35-11.79-8.03-19.82-8.03-5.24 0-9.96 1.2-14.15 3.58-4.19 2.39-7.51 5.79-9.96 10.22-2.45 4.43-3.67 9.55-3.67 15.37s1.22 10.95 3.67 15.37c2.45 4.43 5.76 7.83 9.96 10.22 4.19 2.39 8.91 3.58 14.15 3.58 8.03 0 14.64-2.68 19.82-8.03zm126.81-62.88c7.16 3.96 12.78 9.55 16.86 16.77 4.07 7.22 6.11 15.55 6.11 24.98s-2.04 17.79-6.11 25.06c-4.08 7.28-9.69 12.9-16.86 16.86-7.16 3.96-15.28 5.94-24.37 5.94-12.58 0-22.53-4.19-29.87-12.58v45.24h-21.83V269.19h20.79v12.23c3.61-4.42 8.06-7.74 13.36-9.96 5.3-2.21 11.15-3.32 17.55-3.32 9.08 0 17.2 1.98 24.37 5.94zm-6.99 62.88c5.18-5.35 7.77-12.4 7.77-21.13s-2.59-15.78-7.77-21.14c-5.18-5.35-11.79-8.03-19.82-8.03-5.24 0-9.96 1.2-14.15 3.58-4.19 2.39-7.51 5.79-9.96 10.22-2.45 4.43-3.67 9.55-3.67 15.37s1.22 10.95 3.67 15.37c2.45 4.43 5.76 7.83 9.96 10.22 4.19 2.39 8.91 3.58 14.15 3.58 8.03 0 14.64-2.68 19.82-8.03zm111.61 23.23c-8.79-2.68-15.75-6.23-20.87-10.65l7.86-17.64c5 3.96 11.15 7.19 18.43 9.69 7.28 2.51 14.58 3.76 21.92 3.76 9.08 0 15.86-1.45 20.35-4.37 4.48-2.91 6.72-6.75 6.72-11.53 0-3.49-1.25-6.38-3.76-8.65-2.51-2.27-5.68-4.04-9.52-5.33-3.84-1.28-9.08-2.73-15.72-4.37-9.32-2.21-16.86-4.42-22.62-6.64-5.76-2.21-10.71-5.68-14.85-10.39-4.13-4.72-6.2-11.09-6.2-19.13 0-6.75 1.83-12.9 5.5-18.43 3.67-5.53 9.2-9.93 16.59-13.19 7.39-3.26 16.45-4.89 27.16-4.89 7.45 0 14.79.93 22.01 2.79 7.22 1.86 13.45 4.54 18.69 8.03l-7.16 17.64c-5.36-3.14-10.95-5.53-16.77-7.16s-11.47-2.44-16.94-2.44c-8.97 0-15.63 1.51-20 4.54-4.37 3.03-6.55 7.05-6.55 12.05 0 3.49 1.25 6.35 3.76 8.56 2.5 2.21 5.68 3.96 9.52 5.24 3.84 1.28 9.08 2.74 15.72 4.37 9.08 2.1 16.53 4.28 22.36 6.55 5.82 2.27 10.8 5.74 14.93 10.39 4.13 4.66 6.2 10.95 6.2 18.86 0 6.75-1.83 12.87-5.5 18.34-3.67 5.47-9.23 9.84-16.68 13.1-7.45 3.26-16.54 4.89-27.25 4.89-9.43 0-18.54-1.34-27.34-4.02zm153.27-2.8c-2.56 2.1-5.68 3.67-9.34 4.72-3.67 1.05-7.54 1.57-11.62 1.57-10.25 0-18.16-2.68-23.75-8.03s-8.38-13.16-8.38-23.41v-44.89h-15.37v-17.47h15.37v-21.31h21.83v21.31h24.98v17.47h-24.98v44.37c0 4.54 1.1 8.01 3.32 10.39 2.21 2.39 5.41 3.58 9.61 3.58 4.89 0 8.97-1.28 12.23-3.84l6.11 15.55zm31.27.18c-7.57-4.08-13.48-9.75-17.73-17.03-4.25-7.28-6.38-15.52-6.38-24.72s2.12-17.41 6.38-24.63c4.25-7.22 10.16-12.87 17.73-16.94 7.57-4.07 16.07-6.11 25.5-6.11s18.11 2.04 25.68 6.11c7.57 4.08 13.48 9.72 17.73 16.94 4.25 7.22 6.37 15.43 6.37 24.63s-2.13 17.44-6.37 24.72c-4.25 7.28-10.16 12.96-17.73 17.03-7.57 4.08-16.13 6.11-25.68 6.11s-17.93-2.04-25.5-6.11zm45.41-20.61c5.24-5.35 7.86-12.4 7.86-21.13s-2.62-15.78-7.86-21.14c-5.24-5.35-11.88-8.03-19.91-8.03s-14.64 2.68-19.82 8.03c-5.18 5.36-7.77 12.4-7.77 21.14s2.59 15.78 7.77 21.13c5.18 5.36 11.79 8.03 19.82 8.03s14.67-2.68 19.91-8.03zm104.8-68.82v20.79c-1.86-.35-3.55-.52-5.07-.52-8.5 0-15.14 2.48-19.91 7.42-4.78 4.95-7.16 12.08-7.16 21.4v45.24h-21.83V269.2h20.79v13.62c6.29-9.78 17.35-14.67 33.19-14.67zm104.97 54.67h-73.19c1.28 6.87 4.63 12.31 10.04 16.33 5.42 4.02 12.14 6.03 20.17 6.03 10.25 0 18.69-3.38 25.33-10.13l11.7 13.45c-4.19 5.01-9.49 8.79-15.89 11.35-6.41 2.56-13.62 3.84-21.66 3.84-10.25 0-19.27-2.04-27.07-6.11-7.8-4.08-13.83-9.75-18.08-17.03-4.25-7.28-6.37-15.52-6.37-24.72s2.07-17.26 6.2-24.54c4.13-7.28 9.87-12.95 17.2-17.03 7.34-4.07 15.6-6.11 24.8-6.11s17.2 2.01 24.37 6.03c7.16 4.02 12.75 9.67 16.77 16.94 4.02 7.28 6.03 15.69 6.03 25.24 0 1.52-.12 3.67-.35 6.46zm-64.54-31c-4.83 4.13-7.77 9.64-8.82 16.51h52.92c-.93-6.75-3.79-12.23-8.56-16.42-4.78-4.19-10.71-6.29-17.82-6.29s-12.9 2.07-17.73 6.2z"/></g></svg>